<svg width="124" height="132" viewBox="0 0 124 132" fill="none" xmlns="http://www.w3.org/2000/svg">
<rect x="22" y="4" width="81" height="79" rx="10" fill="#F1294D"/>
<path d="M80 23.7461C80 25.3867 79.7949 27.2324 79.3848 29.2832C78.9746 31.2884 78.4505 33.3392 77.8125 35.4355C77.2201 37.5319 76.5592 39.5827 75.8301 41.5879C75.1465 43.5475 74.5312 45.3249 73.9844 46.9199C73.6198 47.9225 73.2096 49.1758 72.7539 50.6797C72.3438 52.138 71.8424 53.6875 71.25 55.3281C70.7031 56.9688 70.0879 58.6094 69.4043 60.25C68.7207 61.8906 67.9688 63.3717 67.1484 64.6934C66.3281 65.9694 65.4167 67.0176 64.4141 67.8379C63.457 68.6582 62.4089 69.0684 61.2695 69.0684C60.3125 69.0684 59.3783 68.6354 58.4668 67.7695C57.6009 66.9036 56.7578 65.8099 55.9375 64.4883C55.1628 63.1211 54.4108 61.6172 53.6816 59.9766C52.998 58.2904 52.36 56.6497 51.7676 55.0547C51.2207 53.4596 50.7422 51.9785 50.332 50.6113C49.9674 49.2441 49.694 48.196 49.5117 47.4668C48.6003 43.9121 47.7344 40.3346 46.9141 36.7344C46.0938 33.0885 45.6836 29.4427 45.6836 25.7969C45.6836 24.8854 45.7292 23.9512 45.8203 22.9941C45.9115 21.9915 46.1393 21.0801 46.5039 20.2598C46.8685 19.4395 47.3698 18.7786 48.0078 18.2773C48.6914 17.7305 49.6257 17.457 50.8105 17.457C51.8132 17.457 52.7246 18.0267 53.5449 19.166C54.4108 20.2598 55.1855 21.6953 55.8691 23.4727C56.5527 25.25 57.168 27.2324 57.7148 29.4199C58.3073 31.6074 58.8542 33.7721 59.3555 35.9141C59.8568 38.0104 60.3353 39.9928 60.791 41.8613C61.2467 43.6842 61.7025 45.1426 62.1582 46.2363C62.4316 45.3249 62.819 44.0033 63.3203 42.2715C63.8672 40.4941 64.4824 38.5573 65.166 36.4609C65.8952 34.3646 66.6699 32.2227 67.4902 30.0352C68.3561 27.8021 69.2448 25.7969 70.1562 24.0195C71.1133 22.1966 72.0931 20.7155 73.0957 19.5762C74.0983 18.4368 75.1237 17.8672 76.1719 17.8672C76.9466 17.8672 77.5846 18.0495 78.0859 18.4141C78.5872 18.7786 78.9746 19.2572 79.248 19.8496C79.5215 20.4421 79.7038 21.0801 79.7949 21.7637C79.9316 22.4473 80 23.1081 80 23.7461Z" fill="white"/>
<path d="M20 94.1406C20 95.0781 19.8828 96.1328 19.6484 97.3047C19.4141 98.4505 19.1146 99.6224 18.75 100.82C18.4115 102.018 18.0339 103.19 17.6172 104.336C17.2266 105.456 16.875 106.471 16.5625 107.383C16.3542 107.956 16.1198 108.672 15.8594 109.531C15.625 110.365 15.3385 111.25 15 112.188C14.6875 113.125 14.3359 114.062 13.9453 115C13.5547 115.938 13.125 116.784 12.6562 117.539C12.1875 118.268 11.6667 118.867 11.0938 119.336C10.5469 119.805 9.94792 120.039 9.29688 120.039C8.75 120.039 8.21615 119.792 7.69531 119.297C7.20052 118.802 6.71875 118.177 6.25 117.422C5.80729 116.641 5.3776 115.781 4.96094 114.844C4.57031 113.88 4.20573 112.943 3.86719 112.031C3.55469 111.12 3.28125 110.273 3.04688 109.492C2.83854 108.711 2.68229 108.112 2.57812 107.695C2.05729 105.664 1.5625 103.62 1.09375 101.562C0.625 99.4792 0.390625 97.3958 0.390625 95.3125C0.390625 94.7917 0.416667 94.2578 0.46875 93.7109C0.520833 93.138 0.651042 92.6172 0.859375 92.1484C1.06771 91.6797 1.35417 91.3021 1.71875 91.0156C2.10938 90.7031 2.64323 90.5469 3.32031 90.5469C3.89323 90.5469 4.41406 90.8724 4.88281 91.5234C5.3776 92.1484 5.82031 92.9688 6.21094 93.9844C6.60156 95 6.95312 96.1328 7.26562 97.3828C7.60417 98.6328 7.91667 99.8698 8.20312 101.094C8.48958 102.292 8.76302 103.424 9.02344 104.492C9.28385 105.534 9.54427 106.367 9.80469 106.992C9.96094 106.471 10.1823 105.716 10.4688 104.727C10.7812 103.711 11.1328 102.604 11.5234 101.406C11.9401 100.208 12.3828 98.9844 12.8516 97.7344C13.3464 96.4583 13.8542 95.3125 14.375 94.2969C14.9219 93.2552 15.4818 92.4089 16.0547 91.7578C16.6276 91.1068 17.2135 90.7812 17.8125 90.7812C18.2552 90.7812 18.6198 90.8854 18.9062 91.0938C19.1927 91.3021 19.4141 91.5755 19.5703 91.9141C19.7266 92.2526 19.8307 92.6172 19.8828 93.0078C19.9609 93.3984 20 93.776 20 94.1406ZM27.0312 92.7344C27.0312 93.099 26.9271 93.4245 26.7188 93.7109C26.5365 93.9974 26.2891 94.2578 25.9766 94.4922C25.6641 94.7005 25.3255 94.8698 24.9609 95C24.5964 95.1042 24.2578 95.1562 23.9453 95.1562C23.4245 95.1562 22.9688 95.026 22.5781 94.7656C22.1875 94.5052 21.9922 94.1016 21.9922 93.5547C21.9922 93.1641 22.0833 92.8255 22.2656 92.5391C22.474 92.2266 22.7214 91.9792 23.0078 91.7969C23.2943 91.5885 23.6198 91.4323 23.9844 91.3281C24.349 91.224 24.7005 91.1719 25.0391 91.1719C25.5339 91.1719 25.9896 91.2891 26.4062 91.5234C26.8229 91.7578 27.0312 92.1615 27.0312 92.7344ZM27.3438 106.016C27.3438 106.38 27.3438 106.771 27.3438 107.188C27.3438 107.578 27.3307 107.956 27.3047 108.32C27.2786 108.763 27.2656 109.362 27.2656 110.117C27.2656 110.846 27.2396 111.641 27.1875 112.5C27.1354 113.359 27.0443 114.232 26.9141 115.117C26.8099 116.003 26.6276 116.81 26.3672 117.539C26.1068 118.268 25.7552 118.867 25.3125 119.336C24.8958 119.779 24.362 120.013 23.7109 120.039C23.2161 120.065 22.7995 119.87 22.4609 119.453C22.1224 119.036 21.8359 118.503 21.6016 117.852C21.3932 117.174 21.237 116.432 21.1328 115.625C21.0286 114.792 20.9505 113.997 20.8984 113.242C20.8464 112.461 20.8203 111.745 20.8203 111.094C20.8203 110.443 20.8203 109.961 20.8203 109.648C20.8203 109.232 20.8203 108.646 20.8203 107.891C20.8203 107.109 20.8464 106.276 20.8984 105.391C20.9505 104.505 21.0417 103.607 21.1719 102.695C21.3281 101.784 21.5365 100.951 21.7969 100.195C22.0833 99.4401 22.4479 98.8281 22.8906 98.3594C23.3333 97.8906 23.8932 97.6562 24.5703 97.6562C25.2734 97.6562 25.8073 98.0078 26.1719 98.7109C26.5365 99.4141 26.8099 100.234 26.9922 101.172C27.1745 102.109 27.2786 103.047 27.3047 103.984C27.3307 104.896 27.3438 105.573 27.3438 106.016ZM44.6094 105C44.6094 105.13 44.5964 105.273 44.5703 105.43C44.5443 105.56 44.5052 105.69 44.4531 105.82C44.2188 106.419 43.8542 106.927 43.3594 107.344C42.8646 107.734 42.2786 107.93 41.6016 107.93C40.5859 107.93 39.8958 107.422 39.5312 106.406C39.4792 106.276 39.4531 106.133 39.4531 105.977C39.4531 105.794 39.4401 105.612 39.4141 105.43V104.297C39.362 103.932 39.2708 103.646 39.1406 103.438C39.0104 103.229 38.7891 103.125 38.4766 103.125C38.0339 103.125 37.6042 103.411 37.1875 103.984C36.7969 104.531 36.4453 105.195 36.1328 105.977C35.8464 106.732 35.612 107.513 35.4297 108.32C35.2474 109.128 35.1562 109.779 35.1562 110.273C35.1562 110.664 35.1823 111.146 35.2344 111.719C35.2865 112.266 35.3906 112.799 35.5469 113.32C35.7031 113.841 35.9115 114.297 36.1719 114.688C36.4583 115.052 36.8229 115.234 37.2656 115.234C37.7083 115.234 38.112 115.104 38.4766 114.844C38.8672 114.557 39.2448 114.232 39.6094 113.867C39.9479 113.555 40.3125 113.229 40.7031 112.891C41.1198 112.552 41.5885 112.383 42.1094 112.383C42.7604 112.383 43.2682 112.617 43.6328 113.086C44.0234 113.555 44.2188 114.089 44.2188 114.688C44.2188 115.573 43.9844 116.406 43.5156 117.188C43.0469 117.943 42.4609 118.607 41.7578 119.18C41.0547 119.727 40.2734 120.156 39.4141 120.469C38.5547 120.807 37.7344 120.977 36.9531 120.977C35.5469 120.977 34.349 120.625 33.3594 119.922C32.3958 119.219 31.6146 118.333 31.0156 117.266C30.4167 116.172 29.987 114.987 29.7266 113.711C29.4661 112.435 29.3359 111.224 29.3359 110.078C29.3359 108.75 29.5182 107.318 29.8828 105.781C30.2474 104.219 30.8073 102.773 31.5625 101.445C32.3177 100.117 33.2812 99.0104 34.4531 98.125C35.651 97.2396 37.0703 96.7969 38.7109 96.7969C39.7266 96.7969 40.599 97.0182 41.3281 97.4609C42.0833 97.9036 42.6953 98.4896 43.1641 99.2188C43.6589 99.9219 44.0234 100.716 44.2578 101.602C44.5182 102.487 44.6484 103.359 44.6484 104.219C44.6484 104.349 44.6484 104.479 44.6484 104.609C44.6484 104.74 44.6354 104.87 44.6094 105ZM55.8984 121.406C54.0495 121.406 52.6042 121.159 51.5625 120.664C50.5469 120.195 49.7786 119.518 49.2578 118.633C48.763 117.747 48.4635 116.68 48.3594 115.43C48.2552 114.18 48.2031 112.786 48.2031 111.25C48.2031 110.026 48.2422 108.802 48.3203 107.578C48.3984 106.328 48.5156 105 48.6719 103.594C48.3073 103.594 48.0208 103.607 47.8125 103.633C47.6042 103.633 47.4349 103.633 47.3047 103.633C46.4714 103.633 45.7552 103.451 45.1562 103.086C44.5312 102.721 44.2188 102.161 44.2188 101.406C44.2188 100.938 44.401 100.521 44.7656 100.156C45.1042 99.7917 45.5469 99.4792 46.0938 99.2188C46.6406 98.9583 47.2266 98.75 47.8516 98.5938C48.5026 98.4375 49.1146 98.3333 49.6875 98.2812C49.6875 97.5521 49.7396 96.7448 49.8438 95.8594C49.9479 94.974 50.1302 94.1536 50.3906 93.3984C50.6771 92.6172 51.0547 91.9661 51.5234 91.4453C51.9922 90.9245 52.5911 90.6641 53.3203 90.6641C53.737 90.6641 54.1016 90.7943 54.4141 91.0547C54.7526 91.2891 55.026 91.6016 55.2344 91.9922C55.4427 92.3568 55.599 92.7734 55.7031 93.2422C55.8073 93.7109 55.8594 94.1667 55.8594 94.6094C55.8594 95.1302 55.8203 95.6641 55.7422 96.2109C55.6641 96.7578 55.5208 97.4349 55.3125 98.2422C55.7552 98.1901 56.0547 98.1641 56.2109 98.1641C56.3672 98.138 56.5104 98.125 56.6406 98.125C57.0833 98.125 57.5391 98.1641 58.0078 98.2422C58.5026 98.3203 58.9453 98.4505 59.3359 98.6328C59.7526 98.8151 60.0911 99.0625 60.3516 99.375C60.612 99.6615 60.7422 100.013 60.7422 100.43C60.7422 100.898 60.5469 101.315 60.1562 101.68C59.7917 102.044 59.3229 102.357 58.75 102.617C58.1771 102.878 57.5651 103.086 56.9141 103.242C56.263 103.372 55.651 103.464 55.0781 103.516C54.9219 104.583 54.8047 105.573 54.7266 106.484C54.6745 107.37 54.6094 108.268 54.5312 109.18C54.4792 109.622 54.4271 110.078 54.375 110.547C54.349 110.99 54.3359 111.445 54.3359 111.914C54.3359 112.253 54.349 112.656 54.375 113.125C54.401 113.568 54.4922 113.997 54.6484 114.414C54.8047 114.831 55.0521 115.195 55.3906 115.508C55.7292 115.794 56.1979 115.938 56.7969 115.938C57.1615 115.938 57.5391 115.911 57.9297 115.859C58.3203 115.781 58.7109 115.742 59.1016 115.742C59.7786 115.742 60.2604 115.977 60.5469 116.445C60.8594 116.914 61.0156 117.513 61.0156 118.242C61.0156 118.789 60.8464 119.271 60.5078 119.688C60.1953 120.078 59.7917 120.391 59.2969 120.625C58.8021 120.885 58.2422 121.081 57.6172 121.211C57.0182 121.341 56.4453 121.406 55.8984 121.406ZM69.2188 121.133C67.8906 121.133 66.7318 120.781 65.7422 120.078C64.7526 119.375 63.9193 118.477 63.2422 117.383C62.5651 116.289 62.0573 115.078 61.7188 113.75C61.3802 112.396 61.2109 111.068 61.2109 109.766C61.2109 108.385 61.3802 106.966 61.7188 105.508C62.0573 104.023 62.5781 102.682 63.2812 101.484C63.9844 100.26 64.8828 99.2708 65.9766 98.5156C67.0703 97.7344 68.3724 97.3438 69.8828 97.3438C71.3411 97.3438 72.5781 97.7474 73.5938 98.5547C74.6354 99.3359 75.4688 100.326 76.0938 101.523C76.7188 102.695 77.1615 103.984 77.4219 105.391C77.6823 106.797 77.7734 108.125 77.6953 109.375C77.6172 110.755 77.3958 112.148 77.0312 113.555C76.6927 114.961 76.1849 116.224 75.5078 117.344C74.8307 118.464 73.9714 119.375 72.9297 120.078C71.888 120.781 70.651 121.133 69.2188 121.133ZM69.6094 103.477C69.2188 103.477 68.8672 103.685 68.5547 104.102C68.2682 104.518 68.0208 105.026 67.8125 105.625C67.6302 106.224 67.487 106.862 67.3828 107.539C67.2786 108.19 67.2266 108.763 67.2266 109.258C67.2266 109.883 67.2786 110.56 67.3828 111.289C67.513 112.018 67.6823 112.695 67.8906 113.32C68.099 113.919 68.3464 114.427 68.6328 114.844C68.9453 115.234 69.2969 115.43 69.6875 115.43C70.1042 115.43 70.4557 115.234 70.7422 114.844C71.0547 114.453 71.3021 113.958 71.4844 113.359C71.6667 112.76 71.7969 112.109 71.875 111.406C71.9531 110.677 71.9922 110 71.9922 109.375C71.9922 108.802 71.9401 108.177 71.8359 107.5C71.7318 106.797 71.5755 106.146 71.3672 105.547C71.1849 104.948 70.9375 104.453 70.625 104.062C70.3385 103.672 70 103.477 69.6094 103.477ZM93.2422 105.391C92.8776 105.417 92.5651 105.391 92.3047 105.312C92.0443 105.208 91.7839 105.104 91.5234 105C91.2891 104.896 91.0547 104.805 90.8203 104.727C90.5859 104.622 90.3255 104.583 90.0391 104.609C89.5182 104.635 89.0495 104.779 88.6328 105.039C88.2422 105.299 87.8776 105.625 87.5391 106.016C87.2266 106.406 86.9531 106.849 86.7188 107.344C86.4844 107.812 86.3021 108.281 86.1719 108.75C86.0938 109.062 86.0286 109.544 85.9766 110.195C85.9505 110.82 85.9375 111.497 85.9375 112.227C85.9115 112.982 85.8984 113.698 85.8984 114.375C85.8984 115.052 85.8724 115.586 85.8203 115.977C85.7943 116.393 85.7292 116.888 85.625 117.461C85.5208 118.008 85.3516 118.529 85.1172 119.023C84.9089 119.518 84.6224 119.935 84.2578 120.273C83.8932 120.612 83.4245 120.781 82.8516 120.781C82.4089 120.781 82.0182 120.651 81.6797 120.391C81.3672 120.13 81.0938 119.792 80.8594 119.375C80.651 118.932 80.4688 118.424 80.3125 117.852C80.1823 117.279 80.0781 116.693 80 116.094C79.9219 115.469 79.8568 114.844 79.8047 114.219C79.7786 113.594 79.7526 113.008 79.7266 112.461C79.7266 111.888 79.7266 111.367 79.7266 110.898C79.7526 110.43 79.7656 110.052 79.7656 109.766C79.7396 108.854 79.6875 107.943 79.6094 107.031C79.5573 106.094 79.5312 105.169 79.5312 104.258C79.5312 103.685 79.5573 103.047 79.6094 102.344C79.6615 101.641 79.8047 100.99 80.0391 100.391C80.2734 99.7656 80.612 99.2448 81.0547 98.8281C81.5234 98.4115 82.1615 98.2031 82.9688 98.2031C83.4115 98.2031 83.7891 98.3464 84.1016 98.6328C84.4141 98.9193 84.6615 99.2708 84.8438 99.6875C85.0521 100.104 85.2083 100.547 85.3125 101.016C85.4167 101.484 85.4818 101.914 85.5078 102.305C86.1328 101.289 86.8359 100.469 87.6172 99.8438C88.3984 99.1927 89.4141 98.8411 90.6641 98.7891C91.2891 98.763 91.901 98.8281 92.5 98.9844C93.125 99.1146 93.6849 99.349 94.1797 99.6875C94.7005 100 95.1172 100.417 95.4297 100.938C95.7682 101.458 95.9505 102.07 95.9766 102.773C96.0286 103.607 95.7812 104.245 95.2344 104.688C94.6875 105.13 94.0234 105.365 93.2422 105.391ZM103.008 92.7344C103.008 93.099 102.904 93.4245 102.695 93.7109C102.513 93.9974 102.266 94.2578 101.953 94.4922C101.641 94.7005 101.302 94.8698 100.938 95C100.573 95.1042 100.234 95.1562 99.9219 95.1562C99.401 95.1562 98.9453 95.026 98.5547 94.7656C98.1641 94.5052 97.9688 94.1016 97.9688 93.5547C97.9688 93.1641 98.0599 92.8255 98.2422 92.5391C98.4505 92.2266 98.6979 91.9792 98.9844 91.7969C99.2708 91.5885 99.5964 91.4323 99.9609 91.3281C100.326 91.224 100.677 91.1719 101.016 91.1719C101.51 91.1719 101.966 91.2891 102.383 91.5234C102.799 91.7578 103.008 92.1615 103.008 92.7344ZM103.32 106.016C103.32 106.38 103.32 106.771 103.32 107.188C103.32 107.578 103.307 107.956 103.281 108.32C103.255 108.763 103.242 109.362 103.242 110.117C103.242 110.846 103.216 111.641 103.164 112.5C103.112 113.359 103.021 114.232 102.891 115.117C102.786 116.003 102.604 116.81 102.344 117.539C102.083 118.268 101.732 118.867 101.289 119.336C100.872 119.779 100.339 120.013 99.6875 120.039C99.1927 120.065 98.776 119.87 98.4375 119.453C98.099 119.036 97.8125 118.503 97.5781 117.852C97.3698 117.174 97.2135 116.432 97.1094 115.625C97.0052 114.792 96.9271 113.997 96.875 113.242C96.8229 112.461 96.7969 111.745 96.7969 111.094C96.7969 110.443 96.7969 109.961 96.7969 109.648C96.7969 109.232 96.7969 108.646 96.7969 107.891C96.7969 107.109 96.8229 106.276 96.875 105.391C96.9271 104.505 97.0182 103.607 97.1484 102.695C97.3047 101.784 97.513 100.951 97.7734 100.195C98.0599 99.4401 98.4245 98.8281 98.8672 98.3594C99.3099 97.8906 99.8698 97.6562 100.547 97.6562C101.25 97.6562 101.784 98.0078 102.148 98.7109C102.513 99.4141 102.786 100.234 102.969 101.172C103.151 102.109 103.255 103.047 103.281 103.984C103.307 104.896 103.32 105.573 103.32 106.016ZM122.695 114.492C122.695 114.961 122.669 115.573 122.617 116.328C122.591 117.083 122.487 117.826 122.305 118.555C122.122 119.258 121.836 119.87 121.445 120.391C121.055 120.911 120.508 121.172 119.805 121.172C118.841 121.172 118.099 120.859 117.578 120.234C117.057 119.609 116.81 118.828 116.836 117.891C116.003 118.62 115.052 119.193 113.984 119.609C112.943 120.026 111.875 120.234 110.781 120.234C110.026 120.234 109.31 120.052 108.633 119.688C107.956 119.323 107.357 118.854 106.836 118.281C106.315 117.708 105.898 117.07 105.586 116.367C105.273 115.638 105.117 114.922 105.117 114.219C105.117 112.969 105.495 111.875 106.25 110.938C107.031 110 107.982 109.206 109.102 108.555C110.221 107.878 111.406 107.344 112.656 106.953C113.932 106.562 115.065 106.302 116.055 106.172C116.055 106.042 116.055 105.924 116.055 105.82C116.081 105.716 116.094 105.599 116.094 105.469C116.094 104.661 115.872 104.01 115.43 103.516C114.987 103.021 114.362 102.773 113.555 102.773C112.904 102.773 112.344 102.891 111.875 103.125C111.406 103.333 110.964 103.581 110.547 103.867C110.13 104.128 109.714 104.375 109.297 104.609C108.88 104.818 108.411 104.922 107.891 104.922C107.318 104.922 106.823 104.74 106.406 104.375C106.016 104.01 105.82 103.542 105.82 102.969C105.82 102.109 106.068 101.328 106.562 100.625C107.083 99.9219 107.721 99.3359 108.477 98.8672C109.258 98.3724 110.091 97.9948 110.977 97.7344C111.888 97.4479 112.721 97.3047 113.477 97.3047C114.18 97.3047 114.883 97.3958 115.586 97.5781C116.289 97.7344 116.953 97.9948 117.578 98.3594C118.203 98.6979 118.763 99.1276 119.258 99.6484C119.779 100.143 120.195 100.729 120.508 101.406C120.977 102.37 121.354 103.398 121.641 104.492C121.927 105.56 122.148 106.667 122.305 107.812C122.461 108.932 122.565 110.065 122.617 111.211C122.669 112.331 122.695 113.424 122.695 114.492ZM116.445 113.242L116.328 110.586C116.276 110.586 116.224 110.586 116.172 110.586C116.12 110.56 116.068 110.547 116.016 110.547C115.677 110.547 115.247 110.638 114.727 110.82C114.232 110.977 113.75 111.211 113.281 111.523C112.812 111.81 112.409 112.135 112.07 112.5C111.758 112.865 111.602 113.242 111.602 113.633C111.602 113.997 111.732 114.245 111.992 114.375C112.253 114.505 112.552 114.57 112.891 114.57C113.464 114.57 114.076 114.427 114.727 114.141C115.378 113.828 115.951 113.529 116.445 113.242Z" fill="#222222"/>
</svg>
